<svg width="1920" height="955" xmlns="http://www.w3.org/2000/svg"><g><path d="M-19,-19L-52,73L51,74Z" fill="#fcfcfc" stroke="#fcfcfc"/><path d="M-19,-19L51,74L82,-32Z" fill="#f9f9f9" stroke="#f9f9f9"/><path d="M-19,-19L82,-32L155,-83Z" fill="#f8f8f8" stroke="#f8f8f8"/><path d="M82,-32L51,74L182,55Z" fill="#f6f6f6" stroke="#f6f6f6"/><path d="M82,-32L182,55L155,-83Z" fill="#f5f5f5" stroke="#f5f5f5"/><path d="M155,-83L182,55L247,-62Z" fill="#f2f2f2" stroke="#f2f2f2"/><path d="M155,-83L247,-62L355,-63Z" fill="#efefef" stroke="#efefef"/><path d="M155,-83L355,-63L645,-72Z" fill="#e9e9e9" stroke="#e9e9e9"/><path d="M155,-83L645,-72L1028,-83Z" fill="#e0e0e0" stroke="#e0e0e0"/><path d="M247,-62L182,55L265,19Z" fill="#f0f0f0" stroke="#f0f0f0"/><path d="M247,-62L265,19L355,-63Z" fill="#eeeeee" stroke="#eeeeee"/><path d="M355,-63L265,19L326,54Z" fill="#ececec" stroke="#ececec"/><path d="M355,-63L326,54L434,73Z" fill="#eaeaea" stroke="#eaeaea"/><path d="M355,-63L434,73L451,-49Z" fill="#e8e8e8" stroke="#e8e8e8"/><path d="M355,-63L451,-49L577,-57Z" fill="#e6e6e6" stroke="#e6e6e6"/><path d="M355,-63L577,-57L645,-72Z" fill="#e3e3e3" stroke="#e3e3e3"/><path d="M451,-49L434,73L582,73Z" fill="#e5e5e5" stroke="#e5e5e5"/><path d="M451,-49L582,73L577,-57Z" fill="#e3e3e3" stroke="#e3e3e3"/><path d="M577,-57L582,73L666,59Z" fill="#e0e0e0" stroke="#e0e0e0"/><path d="M577,-57L666,59L645,-72Z" fill="#dfdfdf" stroke="#dfdfdf"/><path d="M645,-72L666,59L757,-73Z" fill="#dbdbdb" stroke="#dbdbdb"/><path d="M645,-72L757,-73L1028,-83Z" fill="#d4d4d4" stroke="#d4d4d4"/><path d="M757,-73L666,59L768,65Z" fill="#d9d9d9" stroke="#d9d9d9"/><path d="M757,-73L768,65L827,38Z" fill="#d5d5d5" stroke="#d5d5d5"/><path d="M757,-73L827,38L857,-74Z" fill="#d4d4d4" stroke="#d4d4d4"/><path d="M757,-73L857,-74L1028,-83Z" fill="#d0d0d0" stroke="#d0d0d0"/><path d="M857,-74L827,38L940,56Z" fill="#d0d0d0" stroke="#d0d0d0"/><path d="M857,-74L940,56L945,-75Z" fill="#cecece" stroke="#cecece"/><path d="M857,-74L945,-75L1028,-83Z" fill="#cccccc" stroke="#cccccc"/><path d="M945,-75L940,56L1044,49Z" fill="#c9c9c9" stroke="#c9c9c9"/><path d="M945,-75L1044,49L1028,-83Z" fill="#c7c7c7" stroke="#c7c7c7"/><path d="M1028,-83L1044,49L1141,-62Z" fill="#c2c2c2" stroke="#c2c2c2"/><path d="M1028,-83L1141,-62L1376,-63Z" fill="#b9b9b9" stroke="#b9b9b9"/><path d="M1028,-83L1376,-63L1444,-74Z" fill="#b1b1b1" stroke="#b1b1b1"/><path d="M1028,-83L1444,-74L1745,-78Z" fill="#a5a5a5" stroke="#a5a5a5"/><path d="M1028,-83L1745,-78L1935,-81Z" fill="#959595" stroke="#959595"/><path d="M1141,-62L1044,49L1163,46Z" fill="#bebebe" stroke="#bebebe"/><path d="M1141,-62L1163,46L1241,23Z" fill="#b9b9b9" stroke="#b9b9b9"/><path d="M1141,-62L1241,23L1251,-42Z" fill="#b7b7b7" stroke="#b7b7b7"/><path d="M1141,-62L1251,-42L1376,-63Z" fill="#b3b3b3" stroke="#b3b3b3"/><path d="M1251,-42L1241,23L1322,74Z" fill="#b2b2b2" stroke="#b2b2b2"/><path d="M1251,-42L1322,74L1376,-63Z" fill="#aeaeae" stroke="#aeaeae"/><path d="M1376,-63L1322,74L1474,73Z" fill="#a7a7a7" stroke="#a7a7a7"/><path d="M1376,-63L1474,73L1444,-74Z" fill="#a3a3a3" stroke="#a3a3a3"/><path d="M1444,-74L1474,73L1548,15Z" fill="#9d9d9d" stroke="#9d9d9d"/><path d="M1444,-74L1548,15L1567,-60Z" fill="#9a9a9a" stroke="#9a9a9a"/><path d="M1444,-74L1567,-60L1745,-78Z" fill="#949494" stroke="#949494"/><path d="M1567,-60L1548,15L1661,-55Z" fill="#939393" stroke="#939393"/><path d="M1567,-60L1661,-55L1745,-78Z" fill="#8d8d8d" stroke="#8d8d8d"/><path d="M1661,-55L1548,15L1661,58Z" fill="#909090" stroke="#909090"/><path d="M1661,-55L1661,58L1736,26Z" fill="#8a8a8a" stroke="#8a8a8a"/><path d="M1661,-55L1736,26L1745,-78Z" fill="#878787" stroke="#878787"/><path d="M1745,-78L1736,26L1861,-40Z" fill="#818181" stroke="#818181"/><path d="M1745,-78L1861,-40L1935,-81Z" fill="#808080" stroke="#808080"/><path d="M1861,-40L1736,26L1857,73Z" fill="#808080" stroke="#808080"/><path d="M1861,-40L1857,73L1967,30Z" fill="#808080" stroke="#808080"/><path d="M1861,-40L1967,30L1935,-81Z" fill="#808080" stroke="#808080"/><path d="M1935,-81L1967,30L2020,-45Z" fill="#808080" stroke="#808080"/><path d="M2020,-45L1967,30L2078,66Z" fill="#808080" stroke="#808080"/><path d="M-52,73L-57,137L17,124Z" fill="#fdfdfd" stroke="#fdfdfd"/><path d="M-52,73L17,124L51,74Z" fill="#fbfbfb" stroke="#fbfbfb"/><path d="M51,74L17,124L142,119Z" fill="#f8f8f8" stroke="#f8f8f8"/><path d="M51,74L142,119L182,55Z" fill="#f5f5f5" stroke="#f5f5f5"/><path d="M182,55L142,119L218,147Z" fill="#f3f3f3" stroke="#f3f3f3"/><path d="M182,55L218,147L265,19Z" fill="#f1f1f1" stroke="#f1f1f1"/><path d="M265,19L218,147L326,54Z" fill="#efefef" stroke="#efefef"/><path d="M326,54L218,147L341,173Z" fill="#ededed" stroke="#ededed"/><path d="M326,54L341,173L434,73Z" fill="#eaeaea" stroke="#eaeaea"/><path d="M434,73L341,173L485,128Z" fill="#e8e8e8" stroke="#e8e8e8"/><path d="M434,73L485,128L582,73Z" fill="#e4e4e4" stroke="#e4e4e4"/><path d="M582,73L485,128L555,184Z" fill="#e3e3e3" stroke="#e3e3e3"/><path d="M582,73L555,184L634,122Z" fill="#e0e0e0" stroke="#e0e0e0"/><path d="M582,73L634,122L666,59Z" fill="#dfdfdf" stroke="#dfdfdf"/><path d="M666,59L634,122L755,142Z" fill="#dcdcdc" stroke="#dcdcdc"/><path d="M666,59L755,142L768,65Z" fill="#d9d9d9" stroke="#d9d9d9"/><path d="M768,65L755,142L816,120Z" fill="#d6d6d6" stroke="#d6d6d6"/><path d="M768,65L816,120L827,38Z" fill="#d4d4d4" stroke="#d4d4d4"/><path d="M827,38L816,120L940,56Z" fill="#d1d1d1" stroke="#d1d1d1"/><path d="M940,56L816,120L966,163Z" fill="#cecece" stroke="#cecece"/><path d="M940,56L966,163L1048,134Z" fill="#c9c9c9" stroke="#c9c9c9"/><path d="M940,56L1048,134L1044,49Z" fill="#c7c7c7" stroke="#c7c7c7"/><path d="M1044,49L1048,134L1163,46Z" fill="#c1c1c1" stroke="#c1c1c1"/><path d="M1163,46L1048,134L1176,144Z" fill="#bdbdbd" stroke="#bdbdbd"/><path d="M1163,46L1176,144L1241,23Z" fill="#b8b8b8" stroke="#b8b8b8"/><path d="M1241,23L1176,144L1218,166Z" fill="#b7b7b7" stroke="#b7b7b7"/><path d="M1241,23L1218,166L1322,74Z" fill="#b3b3b3" stroke="#b3b3b3"/><path d="M1322,74L1218,166L1379,126Z" fill="#afafaf" stroke="#afafaf"/><path d="M1322,74L1379,126L1474,73Z" fill="#a6a6a6" stroke="#a6a6a6"/><path d="M1474,73L1379,126L1474,137Z" fill="#a2a2a2" stroke="#a2a2a2"/><path d="M1474,73L1474,137L1584,128Z" fill="#9b9b9b" stroke="#9b9b9b"/><path d="M1474,73L1584,128L1548,15Z" fill="#999999" stroke="#999999"/><path d="M1548,15L1584,128L1661,58Z" fill="#929292" stroke="#929292"/><path d="M1661,58L1584,128L1676,165Z" fill="#8e8e8e" stroke="#8e8e8e"/><path d="M1661,58L1676,165L1741,131Z" fill="#898989" stroke="#898989"/><path d="M1661,58L1741,131L1736,26Z" fill="#878787" stroke="#878787"/><path d="M1736,26L1741,131L1857,73Z" fill="#818181" stroke="#818181"/><path d="M1857,73L1741,131L1874,122Z" fill="#808080" stroke="#808080"/><path d="M1857,73L1874,122L1967,30Z" fill="#808080" stroke="#808080"/><path d="M1967,30L1874,122L1961,182Z" fill="#808080" stroke="#808080"/><path d="M1967,30L1961,182L2065,130Z" fill="#808080" stroke="#808080"/><path d="M1967,30L2065,130L2078,66Z" fill="#808080" stroke="#808080"/><path d="M2078,66L2065,130L2060,322Z" fill="#7e7e7e" stroke="#7e7e7e"/><path d="M2078,66L2060,322L2076,578Z" fill="#707070" stroke="#707070"/><path d="M2078,66L2076,578L2085,949Z" fill="#4f4f4f" stroke="#4f4f4f"/><path d="M-57,137L-76,467L-32,267Z" fill="#f1f1f1" stroke="#f1f1f1"/><path d="M-57,137L-32,267L37,249Z" fill="#f7f7f7" stroke="#f7f7f7"/><path d="M-57,137L37,249L17,124Z" fill="#fafafa" stroke="#fafafa"/><path d="M17,124L37,249L150,216Z" fill="#f5f5f5" stroke="#f5f5f5"/><path d="M17,124L150,216L142,119Z" fill="#f6f6f6" stroke="#f6f6f6"/><path d="M142,119L150,216L218,147Z" fill="#f3f3f3" stroke="#f3f3f3"/><path d="M218,147L150,216L251,229Z" fill="#eeeeee" stroke="#eeeeee"/><path d="M218,147L251,229L341,173Z" fill="#ededed" stroke="#ededed"/><path d="M341,173L251,229L332,223Z" fill="#e8e8e8" stroke="#e8e8e8"/><path d="M341,173L332,223L456,220Z" fill="#e5e5e5" stroke="#e5e5e5"/><path d="M341,173L456,220L485,128Z" fill="#e6e6e6" stroke="#e6e6e6"/><path d="M485,128L456,220L555,184Z" fill="#e3e3e3" stroke="#e3e3e3"/><path d="M555,184L456,220L549,236Z" fill="#dfdfdf" stroke="#dfdfdf"/><path d="M555,184L549,236L662,241Z" fill="#dadada" stroke="#dadada"/><path d="M555,184L662,241L634,122Z" fill="#dddddd" stroke="#dddddd"/><path d="M634,122L662,241L755,142Z" fill="#dbdbdb" stroke="#dbdbdb"/><path d="M755,142L662,241L742,228Z" fill="#d5d5d5" stroke="#d5d5d5"/><path d="M755,142L742,228L816,263Z" fill="#d1d1d1" stroke="#d1d1d1"/><path d="M755,142L816,263L816,120Z" fill="#d3d3d3" stroke="#d3d3d3"/><path d="M816,120L816,263L966,163Z" fill="#cecece" stroke="#cecece"/><path d="M966,163L816,263L973,247Z" fill="#c7c7c7" stroke="#c7c7c7"/><path d="M966,163L973,247L1056,221Z" fill="#c3c3c3" stroke="#c3c3c3"/><path d="M966,163L1056,221L1048,134Z" fill="#c4c4c4" stroke="#c4c4c4"/><path d="M1048,134L1056,221L1176,144Z" fill="#c0c0c0" stroke="#c0c0c0"/><path d="M1176,144L1056,221L1117,246Z" fill="#bababa" stroke="#bababa"/><path d="M1176,144L1117,246L1218,166Z" fill="#b7b7b7" stroke="#b7b7b7"/><path d="M1218,166L1117,246L1267,254Z" fill="#b2b2b2" stroke="#b2b2b2"/><path d="M1218,166L1267,254L1379,126Z" fill="#aeaeae" stroke="#aeaeae"/><path d="M1379,126L1267,254L1355,281Z" fill="#a6a6a6" stroke="#a6a6a6"/><path d="M1379,126L1355,281L1444,221Z" fill="#a2a2a2" stroke="#a2a2a2"/><path d="M1379,126L1444,221L1474,137Z" fill="#a2a2a2" stroke="#a2a2a2"/><path d="M1474,137L1444,221L1562,258Z" fill="#989898" stroke="#989898"/><path d="M1474,137L1562,258L1584,128Z" fill="#979797" stroke="#979797"/><path d="M1584,128L1562,258L1627,237Z" fill="#8f8f8f" stroke="#8f8f8f"/><path d="M1584,128L1627,237L1676,165Z" fill="#8e8e8e" stroke="#8e8e8e"/><path d="M1676,165L1627,237L1773,256Z" fill="#848484" stroke="#848484"/><path d="M1676,165L1773,256L1741,131Z" fill="#838383" stroke="#838383"/><path d="M1741,131L1773,256L1821,254Z" fill="#7c7c7c" stroke="#7c7c7c"/><path d="M1741,131L1821,254L1874,122Z" fill="#7f7f7f" stroke="#7f7f7f"/><path d="M1874,122L1821,254L1961,182Z" fill="#7d7d7d" stroke="#7d7d7d"/><path d="M1961,182L1821,254L1945,265Z" fill="#797979" stroke="#797979"/><path d="M1961,182L1945,265L2034,240Z" fill="#797979" stroke="#797979"/><path d="M1961,182L2034,240L2065,130Z" fill="#7d7d7d" stroke="#7d7d7d"/><path d="M2065,130L2034,240L2060,322Z" fill="#797979" stroke="#797979"/><path d="M-32,267L-76,467L-22,338Z" fill="#e9e9e9" stroke="#e9e9e9"/><path d="M-32,267L-22,338L39,332Z" fill="#ededed" stroke="#ededed"/><path d="M-32,267L39,332L37,249Z" fill="#efefef" stroke="#efefef"/><path d="M37,249L39,332L128,351Z" fill="#eaeaea" stroke="#eaeaea"/><path d="M37,249L128,351L150,216Z" fill="#ececec" stroke="#ececec"/><path d="M150,216L128,351L250,349Z" fill="#e5e5e5" stroke="#e5e5e5"/><path d="M150,216L250,349L251,229Z" fill="#e7e7e7" stroke="#e7e7e7"/><path d="M251,229L250,349L332,223Z" fill="#e4e4e4" stroke="#e4e4e4"/><path d="M332,223L250,349L338,360Z" fill="#dedede" stroke="#dedede"/><path d="M332,223L338,360L426,321Z" fill="#dddddd" stroke="#dddddd"/><path d="M332,223L426,321L456,220Z" fill="#e0e0e0" stroke="#e0e0e0"/><path d="M456,220L426,321L549,236Z" fill="#dcdcdc" stroke="#dcdcdc"/><path d="M549,236L426,321L539,365Z" fill="#d6d6d6" stroke="#d6d6d6"/><path d="M549,236L539,365L643,348Z" fill="#d2d2d2" stroke="#d2d2d2"/><path d="M549,236L643,348L662,241Z" fill="#d4d4d4" stroke="#d4d4d4"/><path d="M662,241L643,348L742,228Z" fill="#d1d1d1" stroke="#d1d1d1"/><path d="M742,228L643,348L784,357Z" fill="#cbcbcb" stroke="#cbcbcb"/><path d="M742,228L784,357L816,263Z" fill="#cacaca" stroke="#cacaca"/><path d="M816,263L784,357L875,345Z" fill="#c3c3c3" stroke="#c3c3c3"/><path d="M816,263L875,345L973,247Z" fill="#c3c3c3" stroke="#c3c3c3"/><path d="M973,247L875,345L973,324Z" fill="#bebebe" stroke="#bebebe"/><path d="M973,247L973,324L1056,221Z" fill="#bebebe" stroke="#bebebe"/><path d="M1056,221L973,324L1123,316Z" fill="#b8b8b8" stroke="#b8b8b8"/><path d="M1056,221L1123,316L1117,246Z" fill="#b6b6b6" stroke="#b6b6b6"/><path d="M1117,246L1123,316L1267,254Z" fill="#b0b0b0" stroke="#b0b0b0"/><path d="M1267,254L1123,316L1262,342Z" fill="#a9a9a9" stroke="#a9a9a9"/><path d="M1267,254L1262,342L1326,331Z" fill="#a3a3a3" stroke="#a3a3a3"/><path d="M1267,254L1326,331L1355,281Z" fill="#a2a2a2" stroke="#a2a2a2"/><path d="M1355,281L1326,331L1475,366Z" fill="#979797" stroke="#979797"/><path d="M1355,281L1475,366L1444,221Z" fill="#979797" stroke="#979797"/><path d="M1444,221L1475,366L1562,258Z" fill="#919191" stroke="#919191"/><path d="M1562,258L1475,366L1556,330Z" fill="#8a8a8a" stroke="#8a8a8a"/><path d="M1562,258L1556,330L1648,339Z" fill="#858585" stroke="#858585"/><path d="M1562,258L1648,339L1627,237Z" fill="#868686" stroke="#868686"/><path d="M1627,237L1648,339L1773,256Z" fill="#7f7f7f" stroke="#7f7f7f"/><path d="M1773,256L1648,339L1746,369Z" fill="#777777" stroke="#777777"/><path d="M1773,256L1746,369L1854,368Z" fill="#6f6f6f" stroke="#6f6f6f"/><path d="M1773,256L1854,368L1821,254Z" fill="#737373" stroke="#737373"/><path d="M1821,254L1854,368L1944,317Z" fill="#717171" stroke="#717171"/><path d="M1821,254L1944,317L1945,265Z" fill="#747474" stroke="#747474"/><path d="M1945,265L1944,317L2034,240Z" fill="#757575" stroke="#757575"/><path d="M2034,240L1944,317L2060,322Z" fill="#737373" stroke="#737373"/><path d="M-22,338L-76,467L40,460Z" fill="#dedede" stroke="#dedede"/><path d="M-22,338L40,460L39,332Z" fill="#e3e3e3" stroke="#e3e3e3"/><path d="M39,332L40,460L128,351Z" fill="#e0e0e0" stroke="#e0e0e0"/><path d="M128,351L40,460L145,442Z" fill="#d9d9d9" stroke="#d9d9d9"/><path d="M128,351L145,442L250,349Z" fill="#dbdbdb" stroke="#dbdbdb"/><path d="M250,349L145,442L277,478Z" fill="#d3d3d3" stroke="#d3d3d3"/><path d="M250,349L277,478L338,360Z" fill="#d4d4d4" stroke="#d4d4d4"/><path d="M338,360L277,478L377,449Z" fill="#cdcdcd" stroke="#cdcdcd"/><path d="M338,360L377,449L426,321Z" fill="#d2d2d2" stroke="#d2d2d2"/><path d="M426,321L377,449L436,461Z" fill="#cccccc" stroke="#cccccc"/><path d="M426,321L436,461L539,365Z" fill="#cecece" stroke="#cecece"/><path d="M539,365L436,461L525,463Z" fill="#c5c5c5" stroke="#c5c5c5"/><path d="M539,365L525,463L658,417Z" fill="#c4c4c4" stroke="#c4c4c4"/><path d="M539,365L658,417L643,348Z" fill="#c8c8c8" stroke="#c8c8c8"/><path d="M643,348L658,417L718,427Z" fill="#c2c2c2" stroke="#c2c2c2"/><path d="M643,348L718,427L784,357Z" fill="#c2c2c2" stroke="#c2c2c2"/><path d="M784,357L718,427L832,464Z" fill="#b9b9b9" stroke="#b9b9b9"/><path d="M784,357L832,464L875,345Z" fill="#bababa" stroke="#bababa"/><path d="M875,345L832,464L941,447Z" fill="#b2b2b2" stroke="#b2b2b2"/><path d="M875,345L941,447L973,324Z" fill="#b6b6b6" stroke="#b6b6b6"/><path d="M973,324L941,447L1023,378Z" fill="#b1b1b1" stroke="#b1b1b1"/><path d="M973,324L1023,378L1123,316Z" fill="#b2b2b2" stroke="#b2b2b2"/><path d="M1023,378L941,447L1017,461Z" fill="#a9a9a9" stroke="#a9a9a9"/><path d="M1023,378L1017,461L1129,448Z" fill="#a4a4a4" stroke="#a4a4a4"/><path d="M1023,378L1129,448L1123,316Z" fill="#a8a8a8" stroke="#a8a8a8"/><path d="M1123,316L1129,448L1262,342Z" fill="#a3a3a3" stroke="#a3a3a3"/><path d="M1262,342L1129,448L1271,425Z" fill="#9a9a9a" stroke="#9a9a9a"/><path d="M1262,342L1271,425L1326,331Z" fill="#9b9b9b" stroke="#9b9b9b"/><path d="M1326,331L1271,425L1345,461Z" fill="#929292" stroke="#929292"/><path d="M1326,331L1345,461L1443,446Z" fill="#8c8c8c" stroke="#8c8c8c"/><path d="M1326,331L1443,446L1475,366Z" fill="#8c8c8c" stroke="#8c8c8c"/><path d="M1475,366L1443,446L1537,463Z" fill="#7f7f7f" stroke="#7f7f7f"/><path d="M1475,366L1537,463L1556,330Z" fill="#818181" stroke="#818181"/><path d="M1556,330L1537,463L1656,431Z" fill="#787878" stroke="#787878"/><path d="M1556,330L1656,431L1648,339Z" fill="#7a7a7a" stroke="#7a7a7a"/><path d="M1648,339L1656,431L1746,369Z" fill="#727272" stroke="#727272"/><path d="M1746,369L1656,431L1728,460Z" fill="#6a6a6a" stroke="#6a6a6a"/><path d="M1746,369L1728,460L1830,476Z" fill="#626262" stroke="#626262"/><path d="M1746,369L1830,476L1854,368Z" fill="#646464" stroke="#646464"/><path d="M1854,368L1830,476L1928,446Z" fill="#616161" stroke="#616161"/><path d="M1854,368L1928,446L1944,317Z" fill="#686868" stroke="#686868"/><path d="M1944,317L1928,446L2041,435Z" fill="#656565" stroke="#656565"/><path d="M1944,317L2041,435L2060,322Z" fill="#6b6b6b" stroke="#6b6b6b"/><path d="M2060,322L2041,435L2076,578Z" fill="#5e5e5e" stroke="#5e5e5e"/><path d="M-76,467L-85,879L-55,664Z" fill="#b3b3b3" stroke="#b3b3b3"/><path d="M-76,467L-55,664L-33,581Z" fill="#c6c6c6" stroke="#c6c6c6"/><path d="M-76,467L-33,581L22,568Z" fill="#cbcbcb" stroke="#cbcbcb"/><path d="M-76,467L22,568L40,460Z" fill="#d1d1d1" stroke="#d1d1d1"/><path d="M40,460L22,568L144,522Z" fill="#cbcbcb" stroke="#cbcbcb"/><path d="M40,460L144,522L145,442Z" fill="#d1d1d1" stroke="#d1d1d1"/><path d="M145,442L144,522L277,478Z" fill="#cccccc" stroke="#cccccc"/><path d="M277,478L144,522L281,520Z" fill="#c5c5c5" stroke="#c5c5c5"/><path d="M277,478L281,520L377,449Z" fill="#c6c6c6" stroke="#c6c6c6"/><path d="M377,449L281,520L342,584Z" fill="#bebebe" stroke="#bebebe"/><path d="M377,449L342,584L439,530Z" fill="#bbbbbb" stroke="#bbbbbb"/><path d="M377,449L439,530L436,461Z" fill="#c1c1c1" stroke="#c1c1c1"/><path d="M436,461L439,530L525,463Z" fill="#bebebe" stroke="#bebebe"/><path d="M525,463L439,530L539,527Z" fill="#b9b9b9" stroke="#b9b9b9"/><path d="M525,463L539,527L658,417Z" fill="#bcbcbc" stroke="#bcbcbc"/><path d="M658,417L539,527L645,577Z" fill="#b4b4b4" stroke="#b4b4b4"/><path d="M658,417L645,577L718,427Z" fill="#b7b7b7" stroke="#b7b7b7"/><path d="M718,427L645,577L758,575Z" fill="#ababab" stroke="#ababab"/><path d="M718,427L758,575L832,464Z" fill="#aeaeae" stroke="#aeaeae"/><path d="M832,464L758,575L852,565Z" fill="#a3a3a3" stroke="#a3a3a3"/><path d="M832,464L852,565L948,537Z" fill="#a1a1a1" stroke="#a1a1a1"/><path d="M832,464L948,537L941,447Z" fill="#a7a7a7" stroke="#a7a7a7"/><path d="M941,447L948,537L1017,461Z" fill="#a3a3a3" stroke="#a3a3a3"/><path d="M1017,461L948,537L1051,531Z" fill="#9b9b9b" stroke="#9b9b9b"/><path d="M1017,461L1051,531L1129,448Z" fill="#9c9c9c" stroke="#9c9c9c"/><path d="M1129,448L1051,531L1145,561Z" fill="#929292" stroke="#929292"/><path d="M1129,448L1145,561L1269,528Z" fill="#8d8d8d" stroke="#8d8d8d"/><path d="M1129,448L1269,528L1271,425Z" fill="#919191" stroke="#919191"/><path d="M1271,425L1269,528L1345,461Z" fill="#8b8b8b" stroke="#8b8b8b"/><path d="M1345,461L1269,528L1317,566Z" fill="#808080" stroke="#808080"/><path d="M1345,461L1317,566L1432,578Z" fill="#787878" stroke="#787878"/><path d="M1345,461L1432,578L1443,446Z" fill="#7b7b7b" stroke="#7b7b7b"/><path d="M1443,446L1432,578L1537,463Z" fill="#757575" stroke="#757575"/><path d="M1537,463L1432,578L1580,530Z" fill="#6b6b6b" stroke="#6b6b6b"/><path d="M1537,463L1580,530L1656,431Z" fill="#6e6e6e" stroke="#6e6e6e"/><path d="M1656,431L1580,530L1663,579Z" fill="#626262" stroke="#626262"/><path d="M1656,431L1663,579L1728,460Z" fill="#626262" stroke="#626262"/><path d="M1728,460L1663,579L1767,554Z" fill="#565656" stroke="#565656"/><path d="M1728,460L1767,554L1821,515Z" fill="#565656" stroke="#565656"/><path d="M1728,460L1821,515L1830,476Z" fill="#595959" stroke="#595959"/><path d="M1830,476L1821,515L1928,446Z" fill="#595959" stroke="#595959"/><path d="M1928,446L1821,515L1982,559Z" fill="#545454" stroke="#545454"/><path d="M1928,446L1982,559L2041,435Z" fill="#595959" stroke="#595959"/><path d="M2041,435L1982,559L2076,578Z" fill="#515151" stroke="#515151"/><path d="M-33,581L-55,664L25,680Z" fill="#b7b7b7" stroke="#b7b7b7"/><path d="M-33,581L25,680L22,568Z" fill="#bcbcbc" stroke="#bcbcbc"/><path d="M22,568L25,680L145,628Z" fill="#b6b6b6" stroke="#b6b6b6"/><path d="M22,568L145,628L144,522Z" fill="#bebebe" stroke="#bebebe"/><path d="M144,522L145,628L281,520Z" fill="#bdbdbd" stroke="#bdbdbd"/><path d="M281,520L145,628L248,656Z" fill="#b3b3b3" stroke="#b3b3b3"/><path d="M281,520L248,656L342,584Z" fill="#b3b3b3" stroke="#b3b3b3"/><path d="M342,584L248,656L315,683Z" fill="#a8a8a8" stroke="#a8a8a8"/><path d="M342,584L315,683L444,642Z" fill="#a6a6a6" stroke="#a6a6a6"/><path d="M342,584L444,642L439,530Z" fill="#aeaeae" stroke="#aeaeae"/><path d="M439,530L444,642L539,527Z" fill="#afafaf" stroke="#afafaf"/><path d="M539,527L444,642L562,676Z" fill="#a3a3a3" stroke="#a3a3a3"/><path d="M539,527L562,676L645,577Z" fill="#a5a5a5" stroke="#a5a5a5"/><path d="M645,577L562,676L646,674Z" fill="#999999" stroke="#999999"/><path d="M645,577L646,674L737,671Z" fill="#979797" stroke="#979797"/><path d="M645,577L737,671L758,575Z" fill="#9b9b9b" stroke="#9b9b9b"/><path d="M758,575L737,671L823,643Z" fill="#939393" stroke="#939393"/><path d="M758,575L823,643L852,565Z" fill="#979797" stroke="#979797"/><path d="M852,565L823,643L972,620Z" fill="#909090" stroke="#909090"/><path d="M852,565L972,620L948,537Z" fill="#949494" stroke="#949494"/><path d="M948,537L972,620L1022,623Z" fill="#8d8d8d" stroke="#8d8d8d"/><path d="M948,537L1022,623L1051,531Z" fill="#919191" stroke="#919191"/><path d="M1051,531L1022,623L1145,561Z" fill="#8a8a8a" stroke="#8a8a8a"/><path d="M1145,561L1022,623L1179,628Z" fill="#808080" stroke="#808080"/><path d="M1145,561L1179,628L1269,528Z" fill="#808080" stroke="#808080"/><path d="M1269,528L1179,628L1276,616Z" fill="#797979" stroke="#797979"/><path d="M1269,528L1276,616L1317,566Z" fill="#797979" stroke="#797979"/><path d="M1317,566L1276,616L1327,615Z" fill="#717171" stroke="#717171"/><path d="M1317,566L1327,615L1432,578Z" fill="#6f6f6f" stroke="#6f6f6f"/><path d="M1432,578L1327,615L1438,670Z" fill="#646464" stroke="#646464"/><path d="M1432,578L1438,670L1535,624Z" fill="#5d5d5d" stroke="#5d5d5d"/><path d="M1432,578L1535,624L1580,530Z" fill="#616161" stroke="#616161"/><path d="M1580,530L1535,624L1649,622Z" fill="#575757" stroke="#575757"/><path d="M1580,530L1649,622L1663,579Z" fill="#565656" stroke="#565656"/><path d="M1663,579L1649,622L1760,685Z" fill="#464646" stroke="#464646"/><path d="M1663,579L1760,685L1767,554Z" fill="#474747" stroke="#474747"/><path d="M1767,554L1760,685L1829,661Z" fill="#3c3c3c" stroke="#3c3c3c"/><path d="M1767,554L1829,661L1821,515Z" fill="#474747" stroke="#474747"/><path d="M1821,515L1829,661L1982,559Z" fill="#464646" stroke="#464646"/><path d="M1982,559L1829,661L1976,665Z" fill="#3d3d3d" stroke="#3d3d3d"/><path d="M1982,559L1976,665L2020,622Z" fill="#3f3f3f" stroke="#3f3f3f"/><path d="M1982,559L2020,622L2076,578Z" fill="#454545" stroke="#454545"/><path d="M2076,578L2020,622L2018,741Z" fill="#393939" stroke="#393939"/><path d="M2076,578L2018,741L2068,873Z" fill="#252525" stroke="#252525"/><path d="M2076,578L2068,873L2085,949Z" fill="#151515" stroke="#151515"/><path d="M-55,664L-85,879L-31,724Z" fill="#9e9e9e" stroke="#9e9e9e"/><path d="M-55,664L-31,724L25,680Z" fill="#acacac" stroke="#acacac"/><path d="M25,680L-31,724L44,763Z" fill="#a2a2a2" stroke="#a2a2a2"/><path d="M25,680L44,763L145,628Z" fill="#a7a7a7" stroke="#a7a7a7"/><path d="M145,628L44,763L184,780Z" fill="#9d9d9d" stroke="#9d9d9d"/><path d="M145,628L184,780L248,656Z" fill="#a2a2a2" stroke="#a2a2a2"/><path d="M248,656L184,780L258,763Z" fill="#959595" stroke="#959595"/><path d="M248,656L258,763L315,683Z" fill="#9b9b9b" stroke="#9b9b9b"/><path d="M315,683L258,763L383,720Z" fill="#949494" stroke="#949494"/><path d="M315,683L383,720L444,642Z" fill="#9b9b9b" stroke="#9b9b9b"/><path d="M444,642L383,720L463,741Z" fill="#949494" stroke="#949494"/><path d="M444,642L463,741L562,676Z" fill="#959595" stroke="#959595"/><path d="M562,676L463,741L518,757Z" fill="#8b8b8b" stroke="#8b8b8b"/><path d="M562,676L518,757L641,723Z" fill="#8a8a8a" stroke="#8a8a8a"/><path d="M562,676L641,723L646,674Z" fill="#8e8e8e" stroke="#8e8e8e"/><path d="M646,674L641,723L737,671Z" fill="#8c8c8c" stroke="#8c8c8c"/><path d="M737,671L641,723L758,737Z" fill="#848484" stroke="#848484"/><path d="M737,671L758,737L823,643Z" fill="#878787" stroke="#878787"/><path d="M823,643L758,737L863,715Z" fill="#818181" stroke="#818181"/><path d="M823,643L863,715L972,620Z" fill="#858585" stroke="#858585"/><path d="M972,620L863,715L952,761Z" fill="#7a7a7a" stroke="#7a7a7a"/><path d="M972,620L952,761L1022,623Z" fill="#7d7d7d" stroke="#7d7d7d"/><path d="M1022,623L952,761L1027,768Z" fill="#707070" stroke="#707070"/><path d="M1022,623L1027,768L1136,773Z" fill="#6b6b6b" stroke="#6b6b6b"/><path d="M1022,623L1136,773L1179,628Z" fill="#717171" stroke="#717171"/><path d="M1179,628L1136,773L1234,749Z" fill="#626262" stroke="#626262"/><path d="M1179,628L1234,749L1276,616Z" fill="#6a6a6a" stroke="#6a6a6a"/><path d="M1276,616L1234,749L1327,774Z" fill="#5b5b5b" stroke="#5b5b5b"/><path d="M1276,616L1327,774L1327,615Z" fill="#626262" stroke="#626262"/><path d="M1327,615L1327,774L1438,670Z" fill="#595959" stroke="#595959"/><path d="M1438,670L1327,774L1463,738Z" fill="#4b4b4b" stroke="#4b4b4b"/><path d="M1438,670L1463,738L1535,624Z" fill="#505050" stroke="#505050"/><path d="M1535,624L1463,738L1552,735Z" fill="#474747" stroke="#474747"/><path d="M1535,624L1552,735L1649,622Z" fill="#4a4a4a" stroke="#4a4a4a"/><path d="M1649,622L1552,735L1625,753Z" fill="#3d3d3d" stroke="#3d3d3d"/><path d="M1649,622L1625,753L1760,685Z" fill="#3b3b3b" stroke="#3b3b3b"/><path d="M1760,685L1625,753L1721,765Z" fill="#2d2d2d" stroke="#2d2d2d"/><path d="M1760,685L1721,765L1823,752Z" fill="#272727" stroke="#272727"/><path d="M1760,685L1823,752L1829,661Z" fill="#2d2d2d" stroke="#2d2d2d"/><path d="M1829,661L1823,752L1970,734Z" fill="#292929" stroke="#292929"/><path d="M1829,661L1970,734L1976,665Z" fill="#303030" stroke="#303030"/><path d="M1976,665L1970,734L2018,741Z" fill="#292929" stroke="#292929"/><path d="M1976,665L2018,741L2020,622Z" fill="#323232" stroke="#323232"/><path d="M-31,724L-85,879L28,840Z" fill="#8f8f8f" stroke="#8f8f8f"/><path d="M-31,724L28,840L44,763Z" fill="#969696" stroke="#969696"/><path d="M44,763L28,840L169,832Z" fill="#8a8a8a" stroke="#8a8a8a"/><path d="M44,763L169,832L184,780Z" fill="#8d8d8d" stroke="#8d8d8d"/><path d="M184,780L169,832L226,853Z" fill="#838383" stroke="#838383"/><path d="M184,780L226,853L258,763Z" fill="#878787" stroke="#878787"/><path d="M258,763L226,853L324,833Z" fill="#808080" stroke="#808080"/><path d="M258,763L324,833L383,720Z" fill="#888888" stroke="#888888"/><path d="M383,720L324,833L448,848Z" fill="#7f7f7f" stroke="#7f7f7f"/><path d="M383,720L448,848L463,741Z" fill="#848484" stroke="#848484"/><path d="M463,741L448,848L518,757Z" fill="#7f7f7f" stroke="#7f7f7f"/><path d="M518,757L448,848L577,873Z" fill="#737373" stroke="#737373"/><path d="M518,757L577,873L641,723Z" fill="#7a7a7a" stroke="#7a7a7a"/><path d="M641,723L577,873L659,851Z" fill="#717171" stroke="#717171"/><path d="M641,723L659,851L758,737Z" fill="#787878" stroke="#787878"/><path d="M758,737L659,851L780,843Z" fill="#6c6c6c" stroke="#6c6c6c"/><path d="M758,737L780,843L852,822Z" fill="#6a6a6a" stroke="#6a6a6a"/><path d="M758,737L852,822L863,715Z" fill="#737373" stroke="#737373"/><path d="M863,715L852,822L952,761Z" fill="#6d6d6d" stroke="#6d6d6d"/><path d="M952,761L852,822L918,833Z" fill="#626262" stroke="#626262"/><path d="M952,761L918,833L1048,818Z" fill="#5e5e5e" stroke="#5e5e5e"/><path d="M952,761L1048,818L1027,768Z" fill="#606060" stroke="#606060"/><path d="M1027,768L1048,818L1136,773Z" fill="#5a5a5a" stroke="#5a5a5a"/><path d="M1136,773L1048,818L1135,873Z" fill="#505050" stroke="#505050"/><path d="M1136,773L1135,873L1229,866Z" fill="#474747" stroke="#474747"/><path d="M1136,773L1229,866L1234,749Z" fill="#4e4e4e" stroke="#4e4e4e"/><path d="M1234,749L1229,866L1318,845Z" fill="#444444" stroke="#444444"/><path d="M1234,749L1318,845L1327,774Z" fill="#484848" stroke="#484848"/><path d="M1327,774L1318,845L1459,818Z" fill="#3b3b3b" stroke="#3b3b3b"/><path d="M1327,774L1459,818L1463,738Z" fill="#3f3f3f" stroke="#3f3f3f"/><path d="M1463,738L1459,818L1552,735Z" fill="#3b3b3b" stroke="#3b3b3b"/><path d="M1552,735L1459,818L1528,880Z" fill="#2e2e2e" stroke="#2e2e2e"/><path d="M1552,735L1528,880L1634,841Z" fill="#262626" stroke="#262626"/><path d="M1552,735L1634,841L1625,753Z" fill="#2d2d2d" stroke="#2d2d2d"/><path d="M1625,753L1634,841L1721,765Z" fill="#252525" stroke="#252525"/><path d="M1721,765L1634,841L1770,860Z" fill="#181818" stroke="#181818"/><path d="M1721,765L1770,860L1823,752Z" fill="#191919" stroke="#191919"/><path d="M1823,752L1770,860L1876,883Z" fill="#0e0e0e" stroke="#0e0e0e"/><path d="M1823,752L1876,883L1915,827Z" fill="#101010" stroke="#101010"/><path d="M1823,752L1915,827L1970,734Z" fill="#1c1c1c" stroke="#1c1c1c"/><path d="M1970,734L1915,827L2018,741Z" fill="#1d1d1d" stroke="#1d1d1d"/><path d="M2018,741L1915,827L2068,873Z" fill="#121212" stroke="#121212"/><path d="M-85,879L-18,1063L-20,965Z" fill="#7e7e7e" stroke="#7e7e7e"/><path d="M-85,879L-20,965L28,840Z" fill="#7d7d7d" stroke="#7d7d7d"/><path d="M28,840L-20,965L70,939Z" fill="#7b7b7b" stroke="#7b7b7b"/><path d="M28,840L70,939L169,832Z" fill="#7c7c7c" stroke="#7c7c7c"/><path d="M169,832L70,939L179,952Z" fill="#757575" stroke="#757575"/><path d="M169,832L179,952L226,853Z" fill="#757575" stroke="#757575"/><path d="M226,853L179,952L224,955Z" fill="#727272" stroke="#727272"/><path d="M226,853L224,955L348,959Z" fill="#6f6f6f" stroke="#6f6f6f"/><path d="M226,853L348,959L324,833Z" fill="#707070" stroke="#707070"/><path d="M324,833L348,959L448,848Z" fill="#6d6d6d" stroke="#6d6d6d"/><path d="M448,848L348,959L460,963Z" fill="#686868" stroke="#686868"/><path d="M448,848L460,963L536,918Z" fill="#666666" stroke="#666666"/><path d="M448,848L536,918L577,873Z" fill="#666666" stroke="#666666"/><path d="M577,873L536,918L618,945Z" fill="#626262" stroke="#626262"/><path d="M577,873L618,945L659,851Z" fill="#606060" stroke="#606060"/><path d="M659,851L618,945L723,952Z" fill="#5d5d5d" stroke="#5d5d5d"/><path d="M659,851L723,952L780,843Z" fill="#5c5c5c" stroke="#5c5c5c"/><path d="M780,843L723,952L835,963Z" fill="#565656" stroke="#565656"/><path d="M780,843L835,963L852,822Z" fill="#575757" stroke="#575757"/><path d="M852,822L835,963L943,925Z" fill="#505050" stroke="#505050"/><path d="M852,822L943,925L918,833Z" fill="#565656" stroke="#565656"/><path d="M918,833L943,925L1048,818Z" fill="#525252" stroke="#525252"/><path d="M1048,818L943,925L1069,955Z" fill="#464646" stroke="#464646"/><path d="M1048,818L1069,955L1135,873Z" fill="#434343" stroke="#434343"/><path d="M1135,873L1069,955L1159,925Z" fill="#3e3e3e" stroke="#3e3e3e"/><path d="M1135,873L1159,925L1229,866Z" fill="#3b3b3b" stroke="#3b3b3b"/><path d="M1229,866L1159,925L1276,960Z" fill="#363636" stroke="#363636"/><path d="M1229,866L1276,960L1318,845Z" fill="#323232" stroke="#323232"/><path d="M1318,845L1276,960L1375,976Z" fill="#2e2e2e" stroke="#2e2e2e"/><path d="M1318,845L1375,976L1459,818Z" fill="#2a2a2a" stroke="#2a2a2a"/><path d="M1459,818L1375,976L1464,980Z" fill="#232323" stroke="#232323"/><path d="M1459,818L1464,980L1526,921Z" fill="#1e1e1e" stroke="#1e1e1e"/><path d="M1459,818L1526,921L1528,880Z" fill="#202020" stroke="#202020"/><path d="M1528,880L1526,921L1634,841Z" fill="#191919" stroke="#191919"/><path d="M1634,841L1526,921L1628,975Z" fill="#131313" stroke="#131313"/><path d="M1634,841L1628,975L1715,936Z" fill="#0d0d0d" stroke="#0d0d0d"/><path d="M1634,841L1715,936L1770,860Z" fill="#0b0b0b" stroke="#0b0b0b"/><path d="M1770,860L1715,936L1833,923Z" fill="#020202" stroke="#020202"/><path d="M1770,860L1833,923L1876,883Z" fill="#010101" stroke="#010101"/><path d="M1876,883L1833,923L1959,975Z" fill="#000000" stroke="#000000"/><path d="M1876,883L1959,975L1915,827Z" fill="#000000" stroke="#000000"/><path d="M1915,827L1959,975L2068,873Z" fill="#000000" stroke="#000000"/><path d="M2068,873L1959,975L2085,949Z" fill="#000000" stroke="#000000"/><path d="M-20,965L-18,1063L53,1027Z" fill="#7c7c7c" stroke="#7c7c7c"/><path d="M-20,965L53,1027L70,939Z" fill="#7a7a7a" stroke="#7a7a7a"/><path d="M70,939L53,1027L142,1048Z" fill="#787878" stroke="#787878"/><path d="M70,939L142,1048L179,952Z" fill="#767676" stroke="#767676"/><path d="M179,952L142,1048L224,955Z" fill="#737373" stroke="#737373"/><path d="M224,955L142,1048L281,1063Z" fill="#727272" stroke="#727272"/><path d="M224,955L281,1063L348,959Z" fill="#6e6e6e" stroke="#6e6e6e"/><path d="M348,959L281,1063L367,1084Z" fill="#6c6c6c" stroke="#6c6c6c"/><path d="M348,959L367,1084L439,1055Z" fill="#6a6a6a" stroke="#6a6a6a"/><path d="M348,959L439,1055L460,963Z" fill="#696969" stroke="#696969"/><path d="M460,963L439,1055L552,1066Z" fill="#666666" stroke="#666666"/><path d="M460,963L552,1066L536,918Z" fill="#646464" stroke="#646464"/><path d="M536,918L552,1066L618,945Z" fill="#626262" stroke="#626262"/><path d="M618,945L552,1066L670,1015Z" fill="#606060" stroke="#606060"/><path d="M618,945L670,1015L723,952Z" fill="#5d5d5d" stroke="#5d5d5d"/><path d="M723,952L670,1015L759,1047Z" fill="#5a5a5a" stroke="#5a5a5a"/><path d="M723,952L759,1047L835,963Z" fill="#575757" stroke="#575757"/><path d="M835,963L759,1047L855,1079Z" fill="#545454" stroke="#545454"/><path d="M835,963L855,1079L943,925Z" fill="#505050" stroke="#505050"/><path d="M943,925L855,1079L969,1082Z" fill="#4e4e4e" stroke="#4e4e4e"/><path d="M943,925L969,1082L1023,1024Z" fill="#4a4a4a" stroke="#4a4a4a"/><path d="M943,925L1023,1024L1069,955Z" fill="#474747" stroke="#474747"/><path d="M1069,955L1023,1024L1143,1068Z" fill="#424242" stroke="#424242"/><path d="M1069,955L1143,1068L1159,925Z" fill="#3e3e3e" stroke="#3e3e3e"/><path d="M1159,925L1143,1068L1216,1028Z" fill="#3a3a3a" stroke="#3a3a3a"/><path d="M1159,925L1216,1028L1276,960Z" fill="#373737" stroke="#373737"/><path d="M1276,960L1216,1028L1326,1061Z" fill="#323232" stroke="#323232"/><path d="M1276,960L1326,1061L1375,976Z" fill="#2d2d2d" stroke="#2d2d2d"/><path d="M1375,976L1326,1061L1483,1063Z" fill="#272727" stroke="#272727"/><path d="M1375,976L1483,1063L1464,980Z" fill="#222222" stroke="#222222"/><path d="M1464,980L1483,1063L1517,1019Z" fill="#1e1e1e" stroke="#1e1e1e"/><path d="M1464,980L1517,1019L1526,921Z" fill="#1c1c1c" stroke="#1c1c1c"/><path d="M1526,921L1517,1019L1628,975Z" fill="#171717" stroke="#171717"/><path d="M1628,975L1517,1019L1638,1041Z" fill="#131313" stroke="#131313"/><path d="M1628,975L1638,1041L1715,936Z" fill="#0d0d0d" stroke="#0d0d0d"/><path d="M1715,936L1638,1041L1735,1067Z" fill="#090909" stroke="#090909"/><path d="M1715,936L1735,1067L1817,1025Z" fill="#040404" stroke="#040404"/><path d="M1715,936L1817,1025L1833,923Z" fill="#010101" stroke="#010101"/><path d="M1833,923L1817,1025L1959,975Z" fill="#000000" stroke="#000000"/><path d="M1959,975L1817,1025L1943,1041Z" fill="#000000" stroke="#000000"/><path d="M1959,975L1943,1041L2040,1029Z" fill="#000000" stroke="#000000"/><path d="M1959,975L2040,1029L2085,949Z" fill="#000000" stroke="#000000"/><path d="M-18,1063L367,1084L281,1063Z" fill="#727272" stroke="#727272"/><path d="M-18,1063L281,1063L142,1048Z" fill="#757575" stroke="#757575"/><path d="M-18,1063L142,1048L53,1027Z" fill="#797979" stroke="#797979"/><path d="M367,1084L969,1082L855,1079Z" fill="#595959" stroke="#595959"/><path d="M367,1084L855,1079L552,1066Z" fill="#616161" stroke="#616161"/><path d="M367,1084L552,1066L439,1055Z" fill="#676767" stroke="#676767"/><path d="M552,1066L855,1079L759,1047Z" fill="#5a5a5a" stroke="#5a5a5a"/><path d="M552,1066L759,1047L670,1015Z" fill="#5e5e5e" stroke="#5e5e5e"/><path d="M969,1082L1735,1067L1483,1063Z" fill="#272727" stroke="#272727"/><path d="M969,1082L1483,1063L1143,1068Z" fill="#383838" stroke="#383838"/><path d="M969,1082L1143,1068L1023,1024Z" fill="#444444" stroke="#444444"/><path d="M1143,1068L1483,1063L1326,1061Z" fill="#2e2e2e" stroke="#2e2e2e"/><path d="M1143,1068L1326,1061L1216,1028Z" fill="#363636" stroke="#363636"/><path d="M1483,1063L1735,1067L1638,1041Z" fill="#111111" stroke="#111111"/><path d="M1483,1063L1638,1041L1517,1019Z" fill="#181818" stroke="#181818"/><path d="M1735,1067L2040,1029L1943,1041Z" fill="#000000" stroke="#000000"/><path d="M1735,1067L1943,1041L1817,1025Z" fill="#000000" stroke="#000000"/></g></svg>